# xmcd
#
# Track frame offsets: 
#        150
#        16710
#        33317
#        48417
#        62320
#        81170
#        93872
#        111460
#        128655
#        146927
#        166967
#        183477
#        195537
#        210032
#        226515
#        243430
#
# Disc length: 3484 seconds
#
# Revision: 2
# Processed by: cddbd v1.5.2PL0 Copyright (c) Steve Scherf et al.
# Submitted via: ExactAudioCopy v1.0b6
#
DISCID=c30d9a10
DTITLE=Gilliard - Pérolas (2000)
DYEAR=2000
DGENRE=Other
TTITLE0=Pensamento
TTITLE1=Aquela Nuvem
TTITLE2=Eu Amo Amar Você (M'Innamoro Di Te)
TTITLE3=Suave É A Noite (Tender Is The Nigth)
TTITLE4=Meditação
TTITLE5=Doce Paixão
TTITLE6=Timidez
TTITLE7=Como Posso Te Chamar De Amiga Se Chamei De Amor
TTITLE8=Quem Me Dera
TTITLE9=Não Diga Nada
TTITLE10=Do Jeito Que Você Deixou
TTITLE11=Um Canto De Paz
TTITLE12=Visagem
TTITLE13=Esse Homem Chamado Jesus
TTITLE14=Quem Viver Verá
TTITLE15=Pouco A Pouco
EXTD=
EXTT0=
EXTT1=
EXTT2=
EXTT3=
EXTT4=
EXTT5=
EXTT6=
EXTT7=
EXTT8=
EXTT9=
EXTT10=
EXTT11=
EXTT12=
EXTT13=
EXTT14=
EXTT15=
PLAYORDER=
